<?xml version="1.0" encoding="UTF-8" standalone="no"?>
<svg
   xmlns:svg="http://www.w3.org/2000/svg"
   xmlns="http://www.w3.org/2000/svg"
   id="svg2"
   height="200"
   width="230"
   version="1.1">
  <path
     id="text4"
     style="font-size:197px;font-family:'EnglishScriptEF DemiBold';fill:#fca679"
     aria-label="D"
     d="m 209.68524,23.451 -0.788,-1.97 c -9.456,3.94 -18.715,9.062 -27.383,14.775 -3.743,-6.698 -6.501,-10.441 -12.411,-15.366 -12.608,-10.441 -29.747,-13.79 -45.704,-13.79 -10.638,0 -21.276,1.576 -31.322998,4.925 -23.837,7.88 -47.28,26.989 -47.28,53.978 0,19.109 15.169,27.58 32.505,27.58 24.230998,0 47.279998,-14.775 58.311998,-36.051 3.152,-6.107 5.122,-12.608 6.895,-19.306 l -2.364,-0.591 c -5.713,13.593 -10.835,25.019 -22.064,35.263 -11.426,10.441 -26.003998,17.533 -41.763998,17.533 -12.608,0 -27.186,-6.698 -27.186,-21.079 0,-15.76 12.608,-31.323 24.428,-40.582 15.563,-12.214 34.671998,-17.336 54.174998,-17.336 20.685,0 41.961,6.698 51.22,26.792 -15.169,10.244 -28.565,22.261 -39.991,36.445 -19.109,23.837 -35.066,46.689 -61.857998,62.055 -10.047,-3.94 -23.443,-8.077 -34.278,-8.077 -5.713,0 -22.458,0.985 -22.458,9.653 0,8.668 15.76,9.259 21.473,9.259 12.411,0 25.807,-2.167 37.627,-6.107 9.653,3.349 19.7,5.91 29.943998,5.91 42.749,0 77.421,-45.901 77.421,-86.286 0,-6.698 -1.182,-12.805 -2.758,-19.306 7.486,-7.683 16.351,-12.805 25.61,-18.321 z m -25.807,36.051 c 0,39.203 -32.308,84.907 -74.269,84.907 -7.88,0 -17.729998,-1.576 -25.018998,-4.728 l 2.364,-0.985 c 13.198998,-5.516 20.684998,-9.653 31.716998,-18.321 18.124,-14.184 28.171,-30.338 41.37,-49.053 6.501,-9.259 13.396,-18.715 21.473,-26.595 1.97,5.516 2.364,8.865 2.364,14.775 z M 72.967242,138.696 c -8.668,4.728 -21.67,5.91 -31.323,5.91 -3.349,0 -17.139,-0.788 -17.139,-6.107 0,-5.91 14.972,-6.698 18.715,-6.698 11.229,0 19.503,2.364 29.747,6.895 z" />
</svg>
